<?xml version="1.0" standalone="no"?>
<!DOCTYPE svg PUBLIC "-//W3C//DTD SVG 20010904//EN"
 "http://www.w3.org/TR/2001/REC-SVG-20010904/DTD/svg10.dtd">
<svg version="1.0" xmlns="http://www.w3.org/2000/svg"
 width="500.000000pt" height="500.000000pt" viewBox="0 0 500.000000 500.000000"
 preserveAspectRatio="xMidYMid meet">
<metadata>
Created by potrace 1.14, written by Peter Selinger 2001-2017
</metadata>
<g transform="translate(0.000000,500.000000) scale(0.100000,-0.100000)"
fill="#000000" stroke="none">
<path d="M844 4960 c-143 -71 -247 -174 -313 -307 l-31 -62 0 -2055 c0 -2051
0 -2054 21 -2108 47 -124 177 -256 324 -328 163 -81 33 -75 1660 -75 1377 0
1453 1 1515 18 202 58 375 192 454 353 l26 53 0 2083 0 2084 -25 50 c-59 119
-187 238 -322 301 l-72 33 -1579 0 -1580 0 -78 -40z m1246 -250 c0 -5 -7 -7
-15 -4 -8 4 -15 8 -15 10 0 2 7 4 15 4 8 0 15 -4 15 -10z m-928 -7 c-12 -2
-20 -9 -17 -14 3 -5 -1 -6 -10 -2 -13 5 -14 7 -3 14 7 5 22 8 33 7 17 -1 17
-1 -3 -5z m2665 1 c-3 -3 -12 -4 -19 -1 -8 3 -5 6 6 6 11 1 17 -2 13 -5z m48
-14 c-27 -12 -43 -12 -25 0 8 5 22 9 30 9 10 0 8 -3 -5 -9z m-2850 -20 c-3 -5
-12 -10 -18 -10 -7 0 -6 4 3 10 19 12 23 12 15 0z m1115 -45 c34 -50 90 -273
70 -285 -7 -4 -3 -26 10 -65 11 -33 24 -95 29 -138 7 -59 14 -84 31 -102 19
-21 20 -28 12 -76 -8 -42 -7 -57 3 -69 7 -8 16 -41 20 -72 4 -32 13 -63 21
-69 9 -8 14 -33 14 -77 0 -47 5 -73 20 -97 17 -27 18 -37 9 -63 -9 -26 -7 -36
16 -71 23 -34 26 -48 23 -100 -3 -54 0 -62 20 -76 12 -9 29 -30 38 -46 12 -24
20 -29 37 -24 21 6 21 5 3 -9 -11 -9 -16 -22 -12 -31 24 -64 149 20 206 140
14 28 40 60 110 134 27 28 46 57 56 83 3 9 37 40 75 68 38 28 89 77 114 108
25 31 65 71 88 88 53 38 69 68 56 103 -19 49 9 146 54 189 14 13 28 40 32 59
3 20 16 52 28 72 13 20 29 54 36 76 17 50 37 66 137 114 44 21 87 45 95 52 22
22 95 59 114 59 14 0 16 6 11 28 -6 26 -6 26 9 8 8 -11 36 -30 63 -43 26 -13
39 -21 29 -18 -49 14 -67 16 -67 9 0 -13 16 -36 24 -35 19 3 27 0 22 -8 -11
-17 27 -4 40 14 12 16 13 12 8 -31 -4 -31 0 -72 10 -112 l17 -62 -47 -65 c-25
-36 -51 -65 -58 -65 -7 0 -27 -28 -44 -62 -36 -75 -57 -195 -47 -278 6 -50 4
-63 -14 -87 -45 -62 -61 -208 -38 -343 8 -47 12 -113 10 -146 -5 -56 0 -75 47
-200 28 -77 102 -238 165 -359 74 -144 115 -236 120 -267 7 -45 9 -48 34 -42
22 4 23 4 9 -6 -25 -15 -22 -34 7 -50 19 -10 28 -10 39 -1 7 6 27 13 44 14 17
1 30 4 30 7 0 3 0 13 1 23 1 15 3 15 21 -3 12 -12 19 -24 16 -28 -3 -5 0 -14
6 -22 8 -12 9 -12 4 3 -3 9 -1 17 4 17 16 0 12 -30 -12 -99 -20 -56 -29 -68
-70 -94 -26 -16 -56 -44 -66 -62 -16 -26 -31 -34 -85 -49 -52 -14 -72 -25 -91
-51 -15 -19 -45 -41 -71 -51 -25 -9 -44 -19 -41 -21 2 -2 19 2 37 10 19 7 39
12 46 10 6 -2 14 1 18 6 4 7 66 11 171 11 124 0 164 3 165 13 0 9 2 9 6 0 2
-7 11 -13 19 -13 13 0 14 -87 12 -647 l-3 -648 -25 -50 c-52 -105 -166 -183
-300 -205 -91 -14 -1081 -13 -1077 2 1 6 -4 13 -12 16 -9 3 -11 0 -6 -8 6 -10
4 -12 -8 -7 -8 3 -32 1 -52 -4 -69 -19 -59 -2 11 20 40 11 77 28 84 35 6 8 18
12 25 10 16 -7 277 165 326 215 20 20 47 44 61 53 14 9 29 30 33 45 3 15 19
49 35 74 18 30 30 66 35 110 4 35 15 89 25 121 l17 56 -25 26 c-23 23 -24 28
-13 53 12 26 10 29 -51 86 -35 32 -94 79 -133 104 -38 26 -72 51 -74 55 -1 5
-19 28 -40 51 -32 37 -48 46 -66 37 -3 -1 -9 -3 -14 -4 -5 0 -13 -4 -17 -9
-13 -13 -40 -8 -88 18 -26 14 -56 25 -67 25 -10 0 -27 8 -37 17 -9 10 -31 19
-47 20 -17 1 -50 6 -75 11 -25 6 -46 7 -48 2 -2 -5 -10 -6 -18 -3 -8 3 -14 1
-14 -5 0 -20 -40 -20 -62 2 -17 15 -33 20 -61 18 -30 -3 -40 1 -43 15 -5 16
-16 18 -117 16 -62 -1 -129 2 -150 7 -23 5 -50 4 -67 -2 -21 -7 -36 -5 -59 7
-25 12 -36 13 -52 4 -15 -8 -28 -8 -43 -1 -13 6 -29 6 -38 1 -12 -6 -20 -2
-32 16 -16 24 -15 25 43 69 32 25 76 53 97 63 21 10 45 24 52 31 7 6 22 12 33
12 10 0 24 9 31 20 7 11 19 20 27 20 9 0 31 15 51 34 46 44 328 216 354 216
24 1 106 74 106 95 0 20 62 30 90 15 13 -7 38 -10 60 -6 46 7 58 -11 35 -52
l-14 -27 6 33 c5 32 5 32 -36 32 -23 0 -50 4 -59 9 -20 10 -74 3 -67 -9 9 -14
-78 -89 -113 -99 -50 -14 -312 -179 -354 -223 -20 -21 -43 -38 -51 -38 -8 0
-17 -6 -20 -14 -3 -8 -19 -17 -35 -21 -17 -3 -33 -13 -36 -21 -3 -9 -10 -13
-15 -10 -9 6 -107 -51 -152 -88 -17 -15 -25 -27 -19 -31 6 -4 19 2 29 14 10
11 21 18 24 14 4 -3 9 2 13 11 3 9 12 16 19 16 7 0 16 7 19 16 3 8 10 12 16 9
5 -3 10 -1 10 4 0 6 3 10 8 9 13 -4 52 13 52 23 0 5 7 9 15 9 8 0 15 4 15 10
0 5 7 7 15 4 8 -4 17 1 21 10 3 9 11 13 17 9 6 -3 7 -1 3 5 -5 8 0 12 13 12
12 0 21 5 21 11 0 5 6 7 13 3 6 -4 9 -4 5 1 -4 4 3 16 16 26 22 17 45 19 281
19 254 0 257 0 276 22 16 20 18 21 19 5 0 -10 -4 -15 -10 -12 -5 3 -10 2 -10
-3 0 -5 17 -9 38 -10 29 -1 33 1 20 9 -10 5 -18 15 -18 22 0 8 3 9 8 1 4 -5
33 -21 64 -33 l57 -23 40 31 c21 17 53 34 70 37 21 4 44 23 73 59 24 29 61 62
84 74 68 37 80 62 88 181 4 58 9 128 11 156 5 66 -12 133 -41 165 -13 14 -24
32 -24 41 0 8 -7 21 -15 28 -9 7 -25 27 -36 44 -12 18 -1 10 25 -19 25 -27 46
-57 46 -66 0 -9 6 -19 14 -22 8 -3 22 -31 32 -61 16 -51 16 -70 5 -217 -11
-153 -13 -164 -39 -194 -15 -18 -43 -40 -63 -50 -19 -9 -54 -40 -77 -70 -31
-39 -50 -54 -75 -59 -33 -6 -96 -60 -84 -72 3 -3 19 3 35 15 29 20 41 21 345
21 310 0 315 0 310 20 -6 24 -25 25 -58 4 -22 -14 -30 -14 -67 -3 -23 8 -43
21 -46 29 -3 12 -2 12 6 2 16 -24 47 -10 44 19 -2 14 4 31 12 39 23 18 20 59
-9 124 -14 31 -25 57 -24 59 3 15 -42 107 -53 107 -5 0 -6 5 -2 12 4 6 3 8 -3
5 -13 -8 -26 20 -16 35 3 6 2 8 -4 5 -5 -3 -18 20 -28 51 -10 31 -22 62 -26
67 -4 6 -10 26 -14 45 -4 19 -12 40 -17 47 -5 7 -7 17 -3 23 3 5 1 10 -4 10
-6 0 -11 10 -11 22 0 19 -54 163 -96 255 -8 17 -14 36 -14 43 0 7 -14 53 -31
104 -18 53 -41 155 -54 246 -13 85 -27 163 -31 173 -11 30 -29 13 -34 -34 l-6
-44 -8 50 c-4 28 -9 55 -10 60 -2 6 -21 -18 -42 -53 -21 -35 -91 -143 -154
-240 -135 -206 -168 -268 -151 -285 6 -6 11 -28 11 -48 0 -21 6 -39 13 -42 16
-5 -17 -74 -65 -138 -19 -25 -38 -56 -41 -70 -4 -13 -31 -51 -60 -84 -47 -52
-56 -58 -70 -46 -14 11 -25 4 -86 -55 -38 -38 -78 -85 -88 -104 -18 -31 -26
-36 -74 -43 -48 -7 -56 -5 -71 14 -10 12 -18 26 -18 32 0 6 7 1 16 -11 19 -28
44 -29 37 -2 -3 11 -10 20 -15 20 -5 0 -6 5 -3 10 4 6 1 17 -5 25 -8 10 -14
70 -16 172 -4 146 -9 185 -36 268 -13 42 -30 144 -29 180 1 17 -8 58 -19 90
-11 33 -20 79 -20 103 0 50 -35 138 -57 146 -13 5 -14 0 -9 -31 6 -38 6 -38
-22 15 -22 41 -30 50 -40 40 -7 -7 -12 -25 -12 -41 0 -48 -109 -378 -137 -415
-23 -30 -83 -203 -83 -239 0 -8 -13 -34 -29 -57 -28 -40 -29 -44 -14 -66 19
-27 7 -76 -31 -132 -13 -20 -27 -50 -31 -68 -4 -19 -16 -35 -30 -42 -25 -11
-35 -35 -35 -87 0 -22 -9 -44 -29 -66 -21 -24 -27 -40 -24 -59 4 -18 -3 -35
-21 -56 -14 -18 -26 -35 -26 -39 0 -4 -13 -14 -29 -24 -19 -11 -32 -29 -36
-49 -10 -43 -19 -50 -120 -99 -63 -31 -92 -51 -104 -72 -10 -19 -37 -39 -76
-58 -33 -15 -52 -28 -42 -29 10 0 37 10 60 21 23 12 43 21 45 20 1 0 2 1 2 4
0 13 97 95 112 95 9 0 24 7 32 16 9 8 21 12 27 8 7 -4 9 -3 6 2 -3 6 6 15 21
22 15 6 35 25 44 42 l17 30 165 0 c99 0 167 4 171 10 3 5 11 10 16 10 6 0 7
-5 4 -11 -5 -7 3 -9 21 -7 17 2 28 10 30 21 1 11 5 22 9 25 3 4 4 -6 1 -21 -4
-26 -40 -66 -59 -67 -5 0 -5 -5 -1 -12 4 -6 3 -8 -3 -5 -6 4 -24 -8 -39 -26
-29 -32 -36 -37 -53 -37 -5 0 -28 -18 -52 -40 -24 -22 -51 -39 -59 -37 -8 1
-14 -4 -12 -10 1 -7 -2 -13 -8 -13 -6 0 -9 -6 -8 -12 2 -7 -1 -12 -7 -11 -5 0
-32 -20 -58 -46 l-48 -47 21 -24 c12 -14 29 -41 37 -60 17 -41 77 -95 104 -93
11 1 19 -3 19 -8 0 -14 117 -1 157 17 28 13 36 13 55 1 37 -23 115 -29 148
-12 39 20 56 19 80 -5 15 -15 33 -20 70 -20 43 0 50 3 50 20 0 24 4 25 40 3
28 -16 29 -16 48 6 17 23 19 23 49 8 26 -14 33 -14 42 -3 16 19 90 15 102 -6
5 -9 26 -19 46 -23 21 -3 48 -13 61 -21 22 -14 26 -13 57 10 l33 25 41 -20
c29 -13 47 -32 62 -62 12 -23 22 -43 24 -45 1 -1 23 2 49 7 l47 9 19 -38 c11
-21 28 -41 38 -44 26 -9 60 -85 43 -95 -9 -6 -8 -18 4 -52 24 -64 29 -89 17
-89 -6 0 -9 -14 -7 -32 3 -17 0 -37 -5 -43 -5 -6 -11 -20 -13 -31 -1 -10 -5
-23 -8 -29 -3 -5 -5 -17 -4 -25 0 -8 -4 -18 -10 -22 -10 -7 -11 -12 -14 -44
-1 -11 -7 -14 -17 -10 -21 8 -54 -20 -54 -46 0 -10 -5 -18 -11 -18 -5 0 -8 -4
-4 -9 6 -10 -11 -24 -35 -28 -8 -1 -16 -7 -18 -13 -2 -5 -8 -8 -13 -4 -5 3 -9
0 -9 -5 0 -6 -3 -10 -7 -9 -5 1 -17 -3 -28 -9 -11 -6 -28 -9 -37 -8 -9 2 -22
-3 -29 -11 -6 -8 -22 -14 -35 -14 -12 0 -26 -5 -29 -10 -4 -6 -11 -8 -16 -5
-5 4 -9 1 -9 -5 0 -6 -4 -9 -9 -6 -5 4 -11 1 -13 -5 -3 -9 -27 -16 -75 -21 -7
-1 -13 -6 -13 -11 0 -6 -3 -7 -7 -4 -3 4 -20 -2 -38 -13 -18 -11 -34 -17 -38
-14 -3 3 -18 -1 -34 -9 -17 -9 -45 -13 -70 -10 -28 2 -43 0 -43 -7 0 -6 -4 -8
-10 -5 -5 3 -10 1 -10 -4 0 -6 -3 -10 -7 -10 -5 1 -10 0 -13 -1 -3 -1 -30 -4
-60 -6 -79 -6 -80 -6 -80 -16 0 -5 -4 -7 -9 -4 -5 4 -11 1 -13 -5 -4 -13 -155
7 -175 23 -8 6 -29 1 -66 -16 -62 -30 -70 -31 -86 -12 -9 11 -3 24 27 62 37
48 38 50 32 119 l-5 70 -110 3 c-107 3 -112 2 -138 -22 -16 -14 -32 -26 -36
-26 -5 0 -15 -8 -22 -17 -12 -14 -12 -16 0 -8 10 5 12 4 7 -4 -4 -6 -11 -9
-16 -6 -4 3 -13 -2 -20 -10 -7 -8 -16 -13 -20 -10 -5 3 -15 -3 -22 -12 -7 -10
-19 -18 -25 -19 -7 -1 -16 -2 -20 -3 -5 0 -9 -22 -10 -49 -3 -82 -5 -87 -52
-90 -76 -6 -182 16 -258 53 -78 39 -128 88 -165 164 -23 46 -23 48 -26 599
l-3 554 31 -22 c16 -12 31 -19 31 -16 1 3 2 12 3 19 1 6 9 11 19 11 9 -1 14 2
11 7 -3 5 0 9 6 9 6 0 8 4 5 10 -3 5 0 7 8 4 21 -8 59 44 51 70 -4 12 -7 26
-6 31 1 6 4 37 7 70 7 80 8 81 54 105 22 11 55 33 73 49 30 26 86 55 153 81
16 6 32 24 41 47 8 21 21 52 28 68 8 17 17 48 21 70 4 21 14 53 23 70 9 16 22
59 28 95 6 36 30 104 53 151 23 49 41 101 41 120 0 19 7 54 15 79 29 87 75
263 75 286 0 23 38 135 49 144 7 6 9 25 21 230 4 80 11 160 15 177 5 24 2 42
-13 66 -16 28 -18 43 -12 78 5 24 6 65 3 90 -3 25 0 62 6 81 8 25 9 43 1 62
-13 34 -28 30 -52 -15 l-19 -34 7 41 c3 23 2 44 -4 47 -5 4 -27 -7 -48 -23
-21 -16 -47 -30 -57 -30 -18 0 -86 -42 -140 -87 -69 -56 -144 -91 -213 -98
-68 -8 -69 -7 -47 11 22 19 22 19 4 71 -10 29 -21 50 -24 46 -4 -3 -5 8 -3 26
2 17 5 33 7 34 2 2 29 21 59 43 30 22 73 51 95 64 22 13 50 32 62 43 12 10 26
16 32 13 7 -4 9 -1 5 8 -7 18 17 31 70 39 21 3 66 23 100 44 33 21 73 44 89
52 15 8 27 18 27 23 0 5 4 7 9 3 5 -3 12 -1 16 5 3 5 21 10 38 10 18 1 46 9
64 18 82 44 151 87 178 112 31 28 58 44 132 76 24 11 43 22 43 27 0 4 14 7 31
7 l31 0 -17 26 c-29 44 3 16 35 -31z m1844 16 c-2 -3 -12 3 -22 13 -16 17 -16
18 5 5 12 -7 20 -15 17 -18z m-3016 5 c-10 -7 -15 -16 -11 -19 3 -4 12 -2 20
5 7 6 15 9 17 7 2 -2 -7 -12 -20 -22 -14 -10 -24 -15 -23 -10 4 22 -2 25 -16
7 -11 -13 -14 -14 -13 -4 2 8 14 23 28 32 29 21 43 24 18 4z m3057 4 c3 -6 -1
-7 -9 -4 -18 7 -21 14 -7 14 6 0 13 -4 16 -10z m55 -25 c0 -2 -6 -7 -12 -11
-7 -4 -10 -4 -6 1 4 4 0 14 -10 22 -15 13 -15 13 6 3 12 -6 22 -13 22 -15z
m-3063 -11 c-3 -3 -12 -4 -19 -1 -8 3 -5 6 6 6 11 1 17 -2 13 -5z m3033 -3 c0
-6 -4 -13 -10 -16 -5 -3 -10 1 -10 9 0 9 5 16 10 16 6 0 10 -4 10 -9z m76 -26
c8 -7 6 -18 -7 -39 l-17 -28 1 25 c1 14 5 23 10 20 12 -7 8 6 -10 35 -10 17
-11 21 -2 12 8 -8 19 -19 25 -25z m-355 -17 c-10 -11 -11 -9 -5 7 7 18 6 19
-12 5 -18 -14 -18 -14 -5 3 10 12 17 15 25 7 7 -7 6 -14 -3 -22z m-112 19 c-2
-1 -13 -9 -24 -17 -19 -14 -19 -14 -6 3 7 9 18 17 24 17 6 0 8 -1 6 -3z
m-2814 -86 c-3 -6 -11 -11 -16 -11 -5 0 -4 6 3 14 14 16 24 13 13 -3z m837 12
c-6 -2 -10 -9 -7 -14 4 -5 -1 -6 -10 -2 -13 5 -14 7 -3 14 7 5 18 8 23 8 6 0
4 -3 -3 -6z m1798 -33 c-8 -5 -24 -9 -35 -9 -16 1 -16 2 5 9 35 11 48 11 30 0z
m-1873 -6 c-3 -3 -12 -4 -19 -1 -8 3 -5 6 6 6 11 1 17 -2 13 -5z m1733 -59
c-6 -7 -8 -15 -5 -18 3 -4 2 -5 -2 -2 -3 3 -13 -1 -22 -8 -14 -10 -14 -10 -4
4 8 10 9 19 3 25 -7 7 -1 10 15 10 17 0 21 -3 15 -11z m867 -17 c-3 -7 -5 -2
-5 12 0 14 2 19 5 13 2 -7 2 -19 0 -25z m-2797 2 c0 -5 -7 -7 -15 -4 -8 4 -15
8 -15 10 0 2 7 4 15 4 8 0 15 -4 15 -10z m-230 -155 c0 -2 -7 -1 -17 2 -11 4
-14 3 -9 -5 4 -8 -3 -16 -19 -22 -33 -13 -38 -13 -30 0 3 6 15 10 25 10 13 0
18 6 15 20 -3 17 -1 19 16 10 10 -6 19 -13 19 -15z m2077 10 c0 -8 -4 -12 -9
-9 -4 3 -8 -3 -9 -13 0 -11 -3 -13 -6 -5 -3 7 1 19 7 27 15 19 17 19 17 0z
m-2167 -60 c0 -7 -30 -13 -34 -7 -3 4 4 9 15 9 10 1 19 0 19 -2z m3117 -137
c-2 -13 -4 -3 -4 22 0 25 2 35 4 23 2 -13 2 -33 0 -45z m-3287 15 c0 -24 -3
-33 -9 -25 -7 12 -4 62 5 62 2 0 4 -17 4 -37z m2197 -115 c-3 -7 -5 -2 -5 12
0 14 2 19 5 13 2 -7 2 -19 0 -25z m-2077 -73 c0 -5 -5 -3 -10 5 -5 8 -10 20
-10 25 0 6 5 3 10 -5 5 -8 10 -19 10 -25z m2077 10 c0 -8 -4 -15 -9 -15 -10 0
-11 14 -1 23 9 10 10 9 10 -8z m37 -13 c3 -5 -1 -9 -9 -9 -8 0 -12 4 -9 9 3 4
7 8 9 8 2 0 6 -4 9 -8z m-2130 -73 c5 -4 -2 -6 -17 -6 -19 2 -23 5 -15 15 6 7
14 9 17 5 3 -4 10 -11 15 -14z m1981 -29 c10 -11 16 -20 13 -20 -3 0 -13 9
-23 20 -10 11 -16 20 -13 20 3 0 13 -9 23 -20z m1202 -12 c-3 -7 -5 -2 -5 12
0 14 2 19 5 13 2 -7 2 -19 0 -25z m-1810 0 c-3 -8 -6 -5 -6 6 -1 11 2 17 5 13
3 -3 4 -12 1 -19z m-802 -17 c12 -23 12 -31 2 -37 -6 -4 -9 -4 -5 1 4 4 1 20
-8 36 -8 16 -12 29 -10 29 3 0 12 -13 21 -29z m-30 -31 c2 -12 1 -20 -2 -16
-4 4 -8 16 -10 28 -4 28 6 18 12 -12z m1381 -22 c3 -20 -12 -33 -20 -19 -4 5
-1 13 6 17 8 5 6 10 -8 16 -18 8 -18 8 0 5 11 -1 20 -10 22 -19z m-149 -152
c4 -4 2 -6 -6 -4 -7 2 -16 -3 -19 -11 -3 -9 0 -11 9 -6 8 5 10 4 6 0 -16 -18
-33 -13 -31 9 1 11 3 22 3 23 2 4 31 -4 38 -11z m-1246 -123 c-12 -20 -14 -14
-5 12 4 9 9 14 11 11 3 -2 0 -13 -6 -23z m-46 -133 c3 -5 1 -10 -4 -10 -6 0
-11 5 -11 10 0 6 2 10 4 10 3 0 8 -4 11 -10z m989 -26 c3 -8 2 -12 -4 -9 -6 3
-10 10 -10 16 0 14 7 11 14 -7z m-1004 -49 c-6 -30 -8 -33 -9 -13 -1 25 8 62
14 56 2 -2 -1 -21 -5 -43z m507 3 c-3 -8 -6 -5 -6 6 -1 11 2 17 5 13 3 -3 4
-12 1 -19z m-514 -73 c-3 -9 -8 -14 -10 -11 -3 3 -2 9 2 15 9 16 15 13 8 -4z
m2724 -47 c-2 -13 -4 -3 -4 22 0 25 2 35 4 23 2 -13 2 -33 0 -45z m-2233 27
c-4 -8 -11 -15 -16 -15 -6 0 -5 6 2 15 7 8 14 15 16 15 2 0 1 -7 -2 -15z
m1114 -21 c-4 -3 -12 5 -18 18 -12 22 -12 22 6 6 10 -10 15 -20 12 -24z m39
-56 c-3 -8 -6 -5 -6 6 -1 11 2 17 5 13 3 -3 4 -12 1 -19z m644 -75 c-12 -20
-14 -14 -5 12 4 9 9 14 11 11 3 -2 0 -13 -6 -23z m-2361 -3 c0 -5 -4 -10 -10
-10 -5 0 -10 5 -10 10 0 6 5 10 10 10 6 0 10 -4 10 -10z m1720 0 c0 -5 -2 -10
-4 -10 -3 0 -8 5 -11 10 -3 6 -1 10 4 10 6 0 11 -4 11 -10z m27 -32 c-3 -8 -6
-5 -6 6 -1 11 2 17 5 13 3 -3 4 -12 1 -19z m-1732 2 c-3 -5 -11 -10 -16 -10
-6 0 -7 5 -4 10 3 6 11 10 16 10 6 0 7 -4 4 -10z m1729 -46 c3 -8 2 -12 -4 -9
-6 3 -10 10 -10 16 0 14 7 11 14 -7z m-1741 -9 c-3 -9 -8 -14 -10 -11 -3 3 -2
9 2 15 9 16 15 13 8 -4z m1796 -70 c0 -5 -6 1 -14 15 -8 14 -14 30 -14 35 0 6
6 -1 14 -15 8 -14 14 -29 14 -35z m-1161 0 c-3 -3 -9 2 -12 12 -6 14 -5 15 5
6 7 -7 10 -15 7 -18z m2159 -7 c-3 -7 -5 -2 -5 12 0 14 2 19 5 13 2 -7 2 -19
0 -25z m-2180 -10 c-3 -8 -6 -5 -6 6 -1 11 2 17 5 13 3 -3 4 -12 1 -19z m50
-20 c-3 -7 -5 -2 -5 12 0 14 2 19 5 13 2 -7 2 -19 0 -25z m1084 5 c-12 -20
-14 -14 -5 12 4 9 9 14 11 11 3 -2 0 -13 -6 -23z m-1125 -20 c-8 -15 -15 -25
-16 -21 0 12 23 58 27 54 3 -2 -2 -17 -11 -33z m1158 5 c-2 -18 -9 -37 -15
-43 -7 -7 -7 -2 0 16 5 15 7 29 4 32 -5 5 4 27 11 27 2 0 2 -14 0 -32z m45
-23 c0 -5 -6 1 -14 15 -8 14 -14 30 -14 35 0 6 6 -1 14 -15 8 -14 14 -29 14
-35z m-323 -4 c-4 -5 0 -12 6 -14 10 -4 9 -8 -2 -16 -8 -6 -19 -11 -25 -11 -5
0 -4 4 3 9 7 4 12 12 11 17 -2 14 0 24 7 24 3 0 3 -4 0 -9z m175 -19 c-13 -2
-27 0 -32 5 -6 6 3 7 23 4 28 -4 29 -6 9 -9z m-994 -14 c-3 -8 -6 -5 -6 6 -1
11 2 17 5 13 3 -3 4 -12 1 -19z m1162 -18 c0 -10 -3 -8 -9 5 -12 27 -12 43 0
25 5 -8 9 -22 9 -30z m-1212 -32 c-3 -8 -6 -5 -6 6 -1 11 2 17 5 13 3 -3 4
-12 1 -19z m1884 -71 c-10 -9 -11 -8 -5 6 3 10 9 15 12 12 3 -3 0 -11 -7 -18z
m-1857 -83 c3 -8 2 -12 -4 -9 -6 3 -10 10 -10 16 0 14 7 11 14 -7z m1936 1
c-7 -9 -15 -13 -19 -10 -3 3 1 10 9 15 21 14 24 12 10 -5z m-1963 -37 c-3 -7
-5 -2 -5 12 0 14 2 19 5 13 2 -7 2 -19 0 -25z m1293 -23 c0 -5 -5 -3 -10 5 -5
8 -10 20 -10 25 0 6 5 3 10 -5 5 -8 10 -19 10 -25z m-2078 -32 c-3 -16 -7 -22
-10 -15 -4 13 4 42 11 42 2 0 2 -12 -1 -27z m2863 -3 c-3 -5 -12 -10 -18 -10
-7 0 -6 4 3 10 19 12 23 12 15 0z m-757 -41 c-3 -8 -7 -3 -11 10 -4 17 -3 21
5 13 5 -5 8 -16 6 -23z m-2131 -11 c-3 -8 -6 -5 -6 6 -1 11 2 17 5 13 3 -3 4
-12 1 -19z m2174 -39 c10 -13 20 -35 24 -49 4 -15 -4 -8 -20 20 -15 25 -32 49
-38 53 -8 6 -8 7 2 5 8 -3 23 -15 32 -29z m-14 -80 c0 -21 -3 -26 -9 -16 -4 9
-5 22 -2 31 9 23 11 20 11 -15z m-1261 -74 c2 -14 0 -14 -14 -3 -14 11 -15 10
-9 -5 4 -11 3 -16 -3 -12 -5 3 -8 16 -6 28 3 12 5 24 5 27 2 9 25 -21 27 -35z
m-1041 15 c-3 -5 -14 -10 -23 -10 -15 0 -15 2 -2 10 20 13 33 13 25 0z m2350
-20 c3 -5 1 -10 -4 -10 -6 0 -11 5 -11 10 0 6 2 10 4 10 3 0 8 -4 11 -10z
m-2468 -54 c0 -8 -6 -12 -15 -8 -11 4 -13 1 -7 -8 6 -9 4 -11 -5 -5 -10 6 -9
11 5 22 23 16 22 16 22 -1z m1033 -20 c0 -2 -7 -7 -16 -10 -8 -3 -12 -2 -9 4
6 10 25 14 25 6z m746 -20 c0 -14 -5 -21 -9 -17 -4 4 -5 15 -1 24 9 24 12 21
10 -7z m-1880 -64 c-15 -15 -16 -15 -16 1 0 10 5 15 10 12 6 -3 10 2 11 12 0
12 2 14 6 5 3 -8 -2 -21 -11 -30z m1009 8 c3 -5 2 -10 -4 -10 -5 0 -13 5 -16
10 -3 6 -2 10 4 10 5 0 13 -4 16 -10z m872 -12 c-3 -8 -6 -5 -6 6 -1 11 2 17
5 13 3 -3 4 -12 1 -19z m678 -18 c3 -5 1 -10 -4 -10 -6 0 -11 5 -11 10 0 6 2
10 4 10 3 0 8 -4 11 -10z m-1600 -30 c-8 -13 7 -13 23 0 7 5 6 3 -2 -6 -14
-17 -41 -10 -31 7 4 5 8 9 11 9 3 0 2 -4 -1 -10z m2375 0 c0 -5 -4 -10 -10
-10 -5 0 -10 5 -10 10 0 6 5 10 10 10 6 0 10 -4 10 -10z m-3320 -10 c0 -5 -7
-10 -15 -10 -8 0 -15 -4 -15 -10 0 -5 -4 -10 -10 -10 -15 0 0 28 18 33 10 3
18 5 20 6 1 0 2 -3 2 -9z m-60 -10 c0 -5 -5 -10 -11 -10 -5 0 -7 5 -4 10 3 6
8 10 11 10 2 0 4 -4 4 -10z m903 3 c-7 -2 -19 -2 -25 0 -7 3 -2 5 12 5 14 0
19 -2 13 -5z m-870 -32 c17 -1 26 -5 22 -11 -4 -6 -2 -16 3 -23 5 -7 13 -27
17 -46 6 -29 5 -33 -9 -28 -9 4 -16 2 -16 -4 0 -7 -10 -9 -24 -5 -19 5 -26 1
-31 -14 -3 -11 -11 -20 -16 -20 -6 0 -7 -4 -4 -10 3 -5 1 -10 -4 -10 -7 0 -11
33 -11 90 0 88 1 90 23 86 12 -3 35 -5 50 -5z m2676 -1833 c0 -22 -1 -22 -9
-3 -8 19 -9 19 -9 1 -1 -11 -4 -17 -7 -13 -9 9 3 37 16 37 5 0 10 -10 9 -22z
m65 16 c23 -9 20 -34 -4 -34 -13 0 -20 7 -20 20 0 22 1 23 24 14z m93 -19 c0
-8 -9 -15 -19 -15 -17 0 -25 20 -12 33 10 9 31 -3 31 -18z m95 9 c22 1 34 -2
31 -9 -3 -5 0 -4 8 3 17 16 29 15 29 -2 0 -22 -43 -28 -57 -9 -7 9 -13 12 -13
6 0 -6 -16 -11 -35 -11 -21 0 -35 5 -35 12 0 19 12 27 24 17 6 -4 28 -7 48 -7z
m-222 -9 c0 -8 -4 -15 -10 -15 -5 0 -10 7 -10 15 0 8 5 15 10 15 6 0 10 -7 10
-15z m80 0 c0 -8 -4 -15 -10 -15 -5 0 -10 7 -10 15 0 8 5 15 10 15 6 0 10 -7
10 -15z"/>
<path d="M2433 3235 c0 -8 6 -16 14 -19 7 -3 13 -2 13 3 0 5 -6 14 -13 20 -10
8 -14 7 -14 -4z"/>
<path d="M3678 1923 c-24 -6 -23 -33 1 -33 14 0 19 6 18 20 -1 11 -1 19 -2 19
0 -1 -8 -3 -17 -6z"/>
<path d="M1725 1373 c-19 -15 -19 -15 5 -9 14 4 30 8 37 8 15 2 6 18 -10 18
-7 0 -21 -8 -32 -17z"/>
<path d="M2325 1380 c-3 -6 1 -7 9 -4 18 7 21 14 7 14 -6 0 -13 -4 -16 -10z"/>
<path d="M1936 1371 c-14 -5 -16 -10 -7 -15 6 -4 18 -3 25 3 7 6 15 8 18 5 3
-3 9 -1 13 5 7 13 -20 13 -49 2z"/>
<path d="M2219 1363 c-13 -17 -13 -17 6 -3 11 8 22 16 24 17 2 2 0 3 -6 3 -6
0 -17 -8 -24 -17z"/>
<path d="M2140 1355 c0 -8 2 -15 4 -15 2 0 6 7 10 15 3 8 1 15 -4 15 -6 0 -10
-7 -10 -15z"/>
<path d="M1618 1353 c7 -3 16 -2 19 1 4 3 -2 6 -13 5 -11 0 -14 -3 -6 -6z"/>
<path d="M2593 1345 c-19 -22 -16 -26 12 -13 13 6 22 15 19 19 -7 12 -17 11
-31 -6z"/>
<path d="M2800 1242 c0 -5 7 -9 15 -9 8 0 12 4 9 9 -3 4 -9 8 -15 8 -5 0 -9
-4 -9 -8z"/>
<path d="M3391 1044 c0 -11 3 -14 6 -6 3 7 2 16 -1 19 -3 4 -6 -2 -5 -13z"/>
<path d="M3376 997 c-8 -31 -7 -39 3 -33 12 8 21 45 11 51 -4 3 -10 -5 -14
-18z"/>
<path d="M3362 925 c3 -27 10 -25 15 5 2 11 -2 20 -7 20 -5 0 -9 -11 -8 -25z"/>
<path d="M3327 800 c-20 -41 -41 -87 -46 -101 -5 -15 -24 -33 -45 -43 -19 -9
-37 -24 -40 -34 -6 -17 -73 -71 -121 -97 -52 -29 -184 -122 -179 -127 8 -9 44
3 38 13 -3 5 1 9 8 9 8 0 20 6 27 13 6 6 15 12 19 12 10 0 106 67 110 77 2 4
9 5 14 2 7 -4 8 -2 4 4 -7 11 6 17 27 13 5 -1 6 3 2 9 -3 6 3 10 16 10 12 0
20 3 16 6 -8 8 16 33 26 27 6 -4 11 12 8 30 -1 7 15 11 32 8 5 -1 6 3 2 9 -3
6 3 10 15 10 12 0 18 5 15 10 -3 6 -2 10 4 10 5 0 15 15 21 34 6 19 21 47 33
62 13 17 16 25 7 20 -8 -4 -7 -1 2 7 10 8 15 17 12 20 -3 3 0 15 6 27 6 11 10
24 8 28 -2 4 -20 -26 -41 -68z"/>
<path d="M1741 534 c0 -11 3 -14 6 -6 3 7 2 16 -1 19 -3 4 -6 -2 -5 -13z"/>
<path d="M1717 422 c-21 -24 -35 -47 -32 -51 4 -3 12 2 19 11 7 10 17 14 21
10 5 -4 5 -2 1 5 -3 6 2 16 11 22 10 6 14 11 9 11 -5 0 -3 7 4 15 7 9 11 17 9
19 -2 2 -21 -17 -42 -42z"/>
<path d="M2836 384 c-11 -7 -18 -16 -15 -18 2 -2 13 2 23 10 11 7 18 16 15 18
-2 2 -13 -2 -23 -10z"/>
</g>
</svg>
